<svg width="34" height="35" viewBox="0 0 34 35" fill="none" xmlns="http://www.w3.org/2000/svg">
<g id="Frame" filter="url(#filter0_d_1_229)">
<circle id="Ellipse 83" cx="17.7052" cy="15.4186" r="6.51774" fill="white"/>
<path id="Vector" d="M21.7953 14.1983L21.7948 14.1985L18.7711 15.4075L20.5263 17.7515L21.7953 14.1983ZM21.7953 14.1983C21.9174 14.149 22.0285 14.0761 22.1225 13.9838C22.2164 13.8915 22.2913 13.7817 22.3428 13.6605C22.3942 13.5393 22.4213 13.4091 22.4225 13.2774C22.4237 13.1458 22.3989 13.0152 22.3496 12.8931C22.3003 12.771 22.2275 12.6598 22.1352 12.5658C22.0429 12.4719 21.933 12.397 21.8118 12.3456C21.6906 12.2941 21.5605 12.267 21.4288 12.2658C21.2972 12.2646 21.1666 12.2894 21.0446 12.3386C21.0445 12.3387 21.0445 12.3387 21.0444 12.3387L18.1847 13.4836V10.7266C18.1847 10.461 18.0792 10.2063 17.8914 10.0185C17.7036 9.8307 17.4489 9.7252 17.1833 9.7252C16.9177 9.7252 16.663 9.8307 16.4752 10.0185C16.2874 10.2063 16.1819 10.461 16.1819 10.7266V13.4836L13.3222 12.3387C13.3221 12.3387 13.322 12.3386 13.322 12.3386C13.0754 12.2391 12.7995 12.2416 12.5548 12.3456C12.4336 12.397 12.3237 12.4719 12.2314 12.5658C12.1392 12.6598 12.0663 12.771 12.017 12.8931C11.9677 13.0152 11.9429 13.1458 11.9441 13.2774C11.9453 13.4091 11.9724 13.5393 12.0239 13.6605C12.1278 13.9052 12.3248 14.0987 12.5714 14.1983L12.5719 14.1985L15.5985 15.4075L13.8403 17.7515L13.8403 17.7515C13.7614 17.8567 13.704 17.9764 13.6714 18.1038C13.6387 18.2312 13.6315 18.3638 13.6501 18.4939C13.6687 18.6241 13.7127 18.7493 13.7797 18.8625C13.8467 18.9757 13.9354 19.0745 14.0406 19.1534C14.1458 19.2323 14.2655 19.2897 14.3929 19.3223L14.4311 19.1731L14.3929 19.3223C14.5203 19.355 14.6528 19.3622 14.783 19.3436C14.9132 19.325 15.0384 19.281 15.1516 19.214C15.2647 19.147 15.3636 19.0583 15.4425 18.9531L15.4425 18.9531L17.1833 16.6317M21.7953 14.1983L17.1833 16.6317M17.1833 16.6317L18.9241 18.9531L18.9241 18.9531C19.0835 19.1656 19.3207 19.3061 19.5836 19.3436C19.8465 19.3812 20.1136 19.3127 20.326 19.1534C20.5385 18.9941 20.679 18.7568 20.7165 18.4939C20.7541 18.2311 20.6857 17.964 20.5264 17.7516L17.1833 16.6317ZM16.7036 25.7423L16.7023 25.7418C15.1031 25.2109 7.16968 22.0968 7.16968 12.7145V6.49002C7.16968 6.08144 7.33199 5.68959 7.6209 5.40068C7.90981 5.11177 8.30166 4.94946 8.71024 4.94946H25.6564C26.0649 4.94946 26.4568 5.11177 26.7457 5.40068C27.0346 5.68959 27.1969 6.08144 27.1969 6.49002V12.7135C27.1969 22.0958 19.2656 25.2099 17.6643 25.7418L17.663 25.7423C17.352 25.8487 17.0146 25.8487 16.7036 25.7423Z" fill="url(#paint0_angular_1_229)" stroke="url(#paint1_linear_1_229)" stroke-width="0.308104"/>
</g>
<defs>
<filter id="filter0_d_1_229" x="-2.53513" y="-2.83006" width="39.438" height="39.4379" filterUnits="userSpaceOnUse" color-interpolation-filters="sRGB">
<feFlood flood-opacity="0" result="BackgroundImageFix"/>
<feColorMatrix in="SourceAlpha" type="matrix" values="0 0 0 0 0 0 0 0 0 0 0 0 0 0 0 0 0 0 127 0" result="hardAlpha"/>
<feOffset dy="2.77294"/>
<feGaussianBlur stdDeviation="3.08104"/>
<feComposite in2="hardAlpha" operator="out"/>
<feColorMatrix type="matrix" values="0 0 0 0 0 0 0 0 0 0 0 0 0 0 0 0 0 0 0.25 0"/>
<feBlend mode="normal" in2="BackgroundImageFix" result="effect1_dropShadow_1_229"/>
<feBlend mode="normal" in="SourceGraphic" in2="effect1_dropShadow_1_229" result="shape"/>
</filter>
<radialGradient id="paint0_angular_1_229" cx="0" cy="0" r="1" gradientUnits="userSpaceOnUse" gradientTransform="translate(17.1833 15.3858) rotate(90) scale(10.5904 10.1677)">
<stop stop-color="white"/>
<stop offset="0.442708" stop-color="#853BFF"/>
<stop offset="1" stop-color="#7F778D"/>
</radialGradient>
<linearGradient id="paint1_linear_1_229" x1="17.1833" y1="4.79541" x2="17.1833" y2="25.9762" gradientUnits="userSpaceOnUse">
<stop stop-color="white" stop-opacity="0.56"/>
<stop offset="1" stop-opacity="0"/>
</linearGradient>
</defs>
</svg>
